<svg xmlns="http://www.w3.org/2000/svg" xmlns:xlink="http://www.w3.org/1999/xlink" width="1366" zoomAndPan="magnify" viewBox="0 0 1024.5 576" height="768" preserveAspectRatio="xMidYMid meet" version="1.0"><defs><filter x="0%" y="0%" width="100%" height="100%" id="83cd4e0c38"><feColorMatrix values="0 0 0 0 1 0 0 0 0 1 0 0 0 0 1 0 0 0 1 0" color-interpolation-filters="sRGB"/></filter><mask id="e2e83ff45f"><g filter="url(#83cd4e0c38)"><rect x="-102.45" width="1229.4" fill="#000000" y="-57.6" height="691.2" fill-opacity="0.7"/></g></mask><clipPath id="925e0df143"><path d="M 0.0898438 0.824219 L 205.695312 0.824219 L 205.695312 152.25 L 0.0898438 152.25 Z M 0.0898438 0.824219 " clip-rule="nonzero"/></clipPath><clipPath id="5ea5c26766"><rect x="0" width="206" y="0" height="153"/></clipPath><mask id="3fa17003d5"><g filter="url(#83cd4e0c38)"><rect x="-102.45" width="1229.4" fill="#000000" y="-57.6" height="691.2" fill-opacity="0.67"/></g></mask><clipPath id="523d07fd04"><path d="M 14 12 L 62 12 L 62 95 L 14 95 Z M 14 12 " clip-rule="nonzero"/></clipPath><clipPath id="09fc5b82a7"><path d="M 24.941406 0.078125 L 121.464844 35.160156 L 90.480469 120.410156 L -6.042969 85.328125 Z M 24.941406 0.078125 " clip-rule="nonzero"/></clipPath><clipPath id="6701257e4a"><path d="M 24.941406 0.078125 L 121.464844 35.160156 L 90.480469 120.410156 L -6.042969 85.328125 Z M 24.941406 0.078125 " clip-rule="nonzero"/></clipPath><clipPath id="caa9678eee"><path d="M 51 28 L 114 28 L 114 112 L 51 112 Z M 51 28 " clip-rule="nonzero"/></clipPath><clipPath id="042f743314"><path d="M 24.941406 0.078125 L 121.464844 35.160156 L 90.480469 120.410156 L -6.042969 85.328125 Z M 24.941406 0.078125 " clip-rule="nonzero"/></clipPath><clipPath id="d07213ace8"><path d="M 24.941406 0.078125 L 121.464844 35.160156 L 90.480469 120.410156 L -6.042969 85.328125 Z M 24.941406 0.078125 " clip-rule="nonzero"/></clipPath><clipPath id="b3525ec4dd"><rect x="0" width="122" y="0" height="120"/></clipPath><mask id="8b06ae076b"><g filter="url(#83cd4e0c38)"><rect x="-102.45" width="1229.4" fill="#000000" y="-57.6" height="691.2" fill-opacity="0.67"/></g></mask><clipPath id="ccbdb55b31"><path d="M 59 23 L 108 23 L 108 106 L 59 106 Z M 59 23 " clip-rule="nonzero"/></clipPath><clipPath id="b6cac492c1"><path d="M 98.1875 117.421875 L 0.261719 86.472656 L 27.597656 -0.015625 L 125.523438 30.933594 Z M 98.1875 117.421875 " clip-rule="nonzero"/></clipPath><clipPath id="48c2f96420"><path d="M 98.1875 117.421875 L 0.261719 86.472656 L 27.597656 -0.015625 L 125.523438 30.933594 Z M 98.1875 117.421875 " clip-rule="nonzero"/></clipPath><clipPath id="bf3f6c0009"><path d="M 7 7 L 69 7 L 69 93 L 7 93 Z M 7 7 " clip-rule="nonzero"/></clipPath><clipPath id="126d02a909"><path d="M 98.1875 117.421875 L 0.261719 86.472656 L 27.597656 -0.015625 L 125.523438 30.933594 Z M 98.1875 117.421875 " clip-rule="nonzero"/></clipPath><clipPath id="d7e84a63b0"><path d="M 98.1875 117.421875 L 0.261719 86.472656 L 27.597656 -0.015625 L 125.523438 30.933594 Z M 98.1875 117.421875 " clip-rule="nonzero"/></clipPath><clipPath id="b4ed6f46dd"><rect x="0" width="125" y="0" height="118"/></clipPath></defs><g mask="url(#e2e83ff45f)"><g transform="matrix(1, 0, 0, 1, 146, 326)"><g clip-path="url(#5ea5c26766)"><g clip-path="url(#925e0df143)"><path fill="#a6a6a6" d="M 40.65625 151.644531 C 40.03125 151.335938 39.140625 150.4375 38.675781 149.640625 C 37.863281 148.253906 37.828125 147.953125 37.828125 142.109375 L 37.828125 136.023438 L 31.21875 136.023438 C 25.285156 136.023438 24.464844 135.953125 23.207031 135.332031 C 21.066406 134.269531 20.429688 133.164062 20.429688 130.511719 C 20.429688 127.859375 21.066406 126.753906 23.207031 125.691406 C 24.464844 125.070312 25.285156 125 31.21875 125 L 37.828125 125 L 37.828125 104.394531 L 35.53125 103.996094 C 20.355469 101.351562 7.320312 90.023438 2.371094 75.175781 C -0.324219 67.082031 -0.460938 57.105469 2.015625 49.003906 C 6.917969 32.976562 20.542969 21.273438 37.125 18.851562 C 41.699219 18.183594 49.632812 18.597656 53.855469 19.726562 C 60.0625 21.390625 65.699219 24.132812 70.242188 27.699219 C 72.183594 29.226562 78.089844 35.546875 82.453125 40.765625 C 83.589844 42.125 86.398438 45.316406 88.695312 47.859375 L 92.871094 52.480469 L 88.992188 56.496094 L 85.113281 60.515625 L 79.304688 53.972656 C 76.109375 50.375 71.441406 45.121094 68.929688 42.296875 C 66.304688 39.347656 63.445312 36.511719 62.207031 35.632812 C 52.476562 28.707031 39.691406 27.625 29.148438 32.835938 C 20.867188 36.925781 14.96875 44.148438 12.265625 53.5 C 11.574219 55.894531 11.476562 56.980469 11.5 61.769531 C 11.527344 66.734375 11.621094 67.589844 12.46875 70.382812 C 14.792969 78.050781 19.707031 84.554688 26.277344 88.648438 C 35.351562 94.308594 46.171875 95.132812 56.0625 90.921875 L 58.515625 89.878906 L 61.273438 92.753906 C 62.792969 94.332031 64.652344 96.054688 65.40625 96.578125 C 66.417969 97.277344 66.6875 97.640625 66.425781 97.957031 C 65.804688 98.703125 59.125 101.824219 56.265625 102.699219 C 54.75 103.167969 52.460938 103.738281 51.183594 103.976562 L 48.859375 104.402344 L 48.859375 124.960938 L 56.007812 125.066406 C 62.855469 125.167969 63.203125 125.207031 64.28125 125.972656 C 65.765625 127.03125 66.550781 128.605469 66.550781 130.511719 C 66.550781 132.417969 65.765625 133.992188 64.28125 135.050781 C 63.203125 135.820312 62.855469 135.859375 56.007812 135.957031 L 48.859375 136.0625 L 48.859375 142.128906 C 48.859375 147.957031 48.824219 148.253906 48.007812 149.648438 C 47.511719 150.492188 46.664062 151.332031 45.972656 151.660156 C 44.472656 152.371094 42.121094 152.367188 40.660156 151.644531 Z M 88.480469 104.4375 C 82.421875 103.480469 77.890625 102.042969 73.347656 99.648438 C 63.234375 94.316406 55.691406 85.203125 52.351562 74.277344 C 51.097656 70.175781 50.550781 66.414062 50.539062 61.769531 C 50.515625 52.859375 52.683594 45.289062 57.332031 38.078125 C 58.160156 36.800781 58.964844 35.753906 59.128906 35.753906 C 60.410156 35.753906 67.910156 43.015625 67.128906 43.496094 C 66.5625 43.847656 64.464844 47.832031 63.527344 50.339844 C 61.960938 54.523438 61.492188 57.761719 61.695312 62.960938 C 61.839844 66.726562 62.054688 68.191406 62.804688 70.554688 C 66.558594 82.398438 75.53125 90.46875 87.792969 93.03125 C 93.714844 94.265625 101.011719 93.390625 106.570312 90.773438 L 108.984375 89.636719 L 112.988281 93.703125 L 116.996094 97.769531 L 115.375 98.769531 C 111.34375 101.25 105.710938 103.226562 100.023438 104.15625 C 97.210938 104.617188 90.628906 104.777344 88.480469 104.4375 Z M 138.789062 104.460938 C 129.875 102.820312 126.335938 101.511719 120.351562 97.625 C 116.625 95.207031 113.582031 92.136719 100.078125 77.171875 L 95.007812 71.550781 L 98.699219 67.609375 C 100.730469 65.4375 102.503906 63.664062 102.640625 63.664062 C 102.78125 63.664062 105.574219 66.648438 108.851562 70.296875 C 112.125 73.945312 115.300781 77.394531 115.90625 77.964844 C 116.511719 78.53125 118.578125 80.730469 120.492188 82.847656 C 125.394531 88.269531 129.734375 90.992188 136.203125 92.707031 C 140.253906 93.78125 147.476562 93.757812 151.539062 92.660156 C 157.398438 91.078125 162.519531 88.117188 166.605469 83.945312 C 172.851562 77.566406 175.757812 70.417969 175.753906 61.425781 C 175.753906 56.144531 174.875 52.347656 172.558594 47.589844 C 169.40625 41.117188 164.3125 35.980469 157.914062 32.828125 C 153.40625 30.609375 150.464844 29.878906 145.164062 29.664062 C 139.804688 29.445312 135.621094 30.164062 131.226562 32.066406 L 128.453125 33.265625 L 127.007812 31.539062 C 126.210938 30.589844 124.46875 28.871094 123.128906 27.71875 C 121.792969 26.570312 120.699219 25.464844 120.699219 25.261719 C 120.699219 24.730469 127.539062 21.378906 130.347656 20.535156 C 135.203125 19.078125 136.652344 18.839844 141.96875 18.636719 C 149.085938 18.363281 153.578125 19.074219 159.828125 21.460938 C 162.386719 22.4375 167.601562 25.335938 169.507812 26.839844 C 170.195312 27.382812 170.894531 27.828125 171.058594 27.828125 C 171.222656 27.828125 174.921875 24.261719 179.277344 19.902344 L 187.195312 11.976562 L 180.898438 11.976562 C 173.761719 11.976562 172.878906 11.769531 171.316406 9.722656 C 170.496094 8.648438 170.328125 8.09375 170.328125 6.464844 C 170.328125 4.835938 170.496094 4.28125 171.316406 3.207031 C 173.0625 0.917969 173.0625 0.917969 188.398438 1.027344 C 201.726562 1.121094 202.171875 1.144531 203.113281 1.84375 C 203.648438 2.242188 204.4375 3.078125 204.863281 3.703125 C 205.632812 4.835938 205.636719 4.933594 205.636719 17.726562 C 205.636719 32.074219 205.621094 32.183594 203.375 33.898438 C 202.292969 34.722656 201.742188 34.890625 200.125 34.890625 C 198.507812 34.890625 197.953125 34.722656 196.875 33.898438 C 194.890625 32.386719 194.609375 31.351562 194.609375 25.515625 L 194.609375 20.425781 L 186.722656 28.308594 L 178.832031 36.195312 L 180.046875 38.097656 C 183.820312 43.996094 185.941406 50.105469 186.707031 57.289062 C 188.558594 74.660156 179.242188 91.835938 163.652344 99.789062 C 157.160156 103.101562 152.308594 104.316406 144.820312 104.496094 C 141.976562 104.5625 139.261719 104.546875 138.789062 104.460938 Z M 74.652344 85.101562 C 72.058594 83.035156 69.386719 80.097656 69.589844 79.535156 C 69.816406 78.902344 110.335938 36.789062 110.71875 36.789062 C 111.625 36.789062 118.628906 43.757812 118.367188 44.398438 C 118.230469 44.738281 77.753906 86.917969 77.460938 87.023438 C 77.3125 87.078125 76.046875 86.214844 74.652344 85.101562 Z M 125.695312 85.566406 C 124.652344 84.726562 122.925781 83.050781 121.859375 81.847656 C 120.054688 79.804688 119.953125 79.605469 120.4375 78.980469 C 120.722656 78.609375 121.628906 76.90625 122.453125 75.191406 C 131.054688 57.289062 121.21875 36.066406 101.746094 30.523438 C 99.417969 29.863281 98.160156 29.738281 93.648438 29.734375 C 87.765625 29.726562 85.664062 30.117188 80.898438 32.105469 L 78.316406 33.183594 L 74.328125 29.15625 L 70.339844 25.125 L 72.433594 23.886719 C 75.050781 22.335938 79.832031 20.484375 83.65625 19.535156 C 87.855469 18.496094 96.15625 18.238281 100.660156 19.003906 C 119.574219 22.230469 134.027344 37.378906 136.363281 56.417969 C 137.40625 64.902344 135.9375 73.210938 132.023438 80.992188 C 130.296875 84.421875 128.546875 87.097656 128.027344 87.09375 C 127.789062 87.09375 126.738281 86.40625 125.695312 85.566406 Z M 125.695312 85.566406 " fill-opacity="1" fill-rule="nonzero"/></g></g></g></g><g mask="url(#3fa17003d5)"><g transform="matrix(1, 0, 0, 1, 0, 80)"><g clip-path="url(#b3525ec4dd)"><g clip-path="url(#523d07fd04)"><g clip-path="url(#09fc5b82a7)"><g clip-path="url(#6701257e4a)"><path fill="#a6a6a6" d="M 38.425781 84.097656 L 47.160156 84.855469 L 47.765625 77.828125 L 39.03125 77.070312 C 38.570312 77.03125 38.234375 76.628906 38.273438 76.171875 L 39.652344 60.152344 C 39.6875 59.75 40.003906 59.429688 40.402344 59.394531 C 51.765625 58.347656 60.722656 49.339844 61.703125 37.96875 C 62.8125 25.019531 53.171875 13.570312 40.207031 12.449219 C 33.925781 11.902344 27.8125 13.832031 22.992188 17.882812 C 18.167969 21.933594 15.21875 27.617188 14.675781 33.890625 C 13.699219 45.257812 20.992188 55.675781 32.003906 58.664062 C 32.398438 58.765625 32.648438 59.140625 32.617188 59.539062 L 31.238281 75.5625 C 31.21875 75.78125 31.113281 75.984375 30.945312 76.125 C 30.777344 76.265625 30.558594 76.335938 30.335938 76.316406 L 21.605469 75.558594 L 21 82.585938 L 29.734375 83.34375 C 29.808594 83.351562 29.878906 83.367188 29.945312 83.390625 C 30.292969 83.515625 30.523438 83.859375 30.492188 84.242188 L 29.667969 93.832031 L 36.703125 94.445312 L 37.527344 84.855469 C 37.546875 84.632812 37.652344 84.429688 37.820312 84.289062 C 37.988281 84.148438 38.207031 84.078125 38.425781 84.097656 Z M 32.496094 52.949219 C 31.980469 52.761719 31.46875 52.546875 30.964844 52.304688 C 26.761719 50.3125 23.589844 46.804688 22.027344 42.429688 C 20.464844 38.050781 20.703125 33.332031 22.695312 29.136719 C 26.808594 20.480469 37.214844 16.773438 45.882812 20.898438 C 50.085938 22.894531 53.261719 26.402344 54.820312 30.777344 C 56.382812 35.152344 56.144531 39.875 54.152344 44.070312 C 50.28125 52.222656 40.828125 55.976562 32.496094 52.949219 Z M 32.496094 52.949219 " fill-opacity="1" fill-rule="nonzero"/></g></g></g><g clip-path="url(#caa9678eee)"><g clip-path="url(#042f743314)"><g clip-path="url(#d07213ace8)"><path fill="#a6a6a6" d="M 88.476562 69.199219 C 88.148438 68.96875 88.039062 68.53125 88.210938 68.167969 L 100.34375 42.625 C 100.488281 42.324219 100.800781 42.136719 101.136719 42.152344 C 101.46875 42.171875 101.765625 42.386719 101.878906 42.703125 L 107.546875 58.589844 L 113.046875 56.636719 L 105.304688 34.945312 C 105.25 34.792969 105.246094 34.632812 105.277344 34.484375 L 103.144531 28.5 L 97.15625 30.628906 C 97.058594 30.75 96.929688 30.84375 96.78125 30.898438 L 75.070312 38.609375 L 77.03125 44.105469 L 92.933594 38.457031 C 93.117188 38.390625 93.316406 38.394531 93.496094 38.460938 C 93.621094 38.503906 93.734375 38.582031 93.828125 38.683594 C 94.054688 38.933594 94.105469 39.292969 93.960938 39.597656 L 81.828125 65.140625 C 81.65625 65.503906 81.246094 65.691406 80.859375 65.585938 C 69.84375 62.59375 58.292969 67.90625 53.398438 78.214844 C 50.699219 83.898438 50.375 90.296875 52.492188 96.230469 C 54.609375 102.160156 58.914062 106.917969 64.609375 109.621094 C 76.371094 115.199219 90.46875 110.191406 96.042969 98.453125 C 100.941406 88.148438 97.757812 75.84375 88.476562 69.199219 Z M 90.449219 95.800781 C 86.578125 103.953125 77.125 107.707031 68.792969 104.679688 C 68.277344 104.492188 67.765625 104.277344 67.261719 104.039062 C 63.0625 102.042969 59.886719 98.535156 58.324219 94.160156 C 56.761719 89.78125 57 85.0625 58.992188 80.867188 C 63.105469 72.207031 73.515625 68.5 82.179688 72.628906 C 86.382812 74.621094 89.558594 78.128906 91.117188 82.507812 C 92.679688 86.882812 92.441406 91.605469 90.449219 95.800781 Z M 90.449219 95.800781 " fill-opacity="1" fill-rule="nonzero"/></g></g></g></g></g></g><g mask="url(#8b06ae076b)"><g transform="matrix(1, 0, 0, 1, 847, 353)"><g clip-path="url(#b4ed6f46dd)"><g clip-path="url(#ccbdb55b31)"><g clip-path="url(#b6cac492c1)"><g clip-path="url(#48c2f96420)"><path fill="#a6a6a6" d="M 81.148438 34.054688 L 72.390625 33.667969 L 72.082031 40.714844 L 80.84375 41.097656 C 81.304688 41.117188 81.65625 41.507812 81.636719 41.964844 L 80.941406 58.03125 C 80.921875 58.433594 80.621094 58.765625 80.222656 58.816406 C 68.914062 60.34375 60.347656 69.726562 59.851562 81.128906 C 59.289062 94.113281 69.410156 105.144531 82.410156 105.714844 C 88.707031 105.992188 94.734375 103.804688 99.382812 99.550781 C 104.027344 95.300781 106.734375 89.496094 107.007812 83.207031 C 107.5 71.808594 99.773438 61.707031 88.644531 59.1875 C 88.246094 59.105469 87.980469 58.742188 87.996094 58.34375 L 88.691406 42.277344 C 88.703125 42.058594 88.796875 41.847656 88.960938 41.699219 C 89.125 41.550781 89.339844 41.472656 89.558594 41.484375 L 98.316406 41.867188 L 98.621094 34.824219 L 89.863281 34.4375 C 89.789062 34.433594 89.71875 34.421875 89.648438 34.398438 C 89.300781 34.289062 89.054688 33.953125 89.070312 33.570312 L 89.488281 23.953125 L 82.429688 23.644531 L 82.015625 33.257812 C 82.003906 33.480469 81.90625 33.6875 81.746094 33.835938 C 81.582031 33.984375 81.367188 34.0625 81.148438 34.054688 Z M 88.394531 64.921875 C 88.917969 65.085938 89.4375 65.277344 89.953125 65.5 C 94.234375 67.3125 97.554688 70.683594 99.300781 74.988281 C 101.046875 79.292969 101.011719 84.019531 99.199219 88.296875 C 95.457031 97.121094 85.21875 101.265625 76.378906 97.511719 C 72.097656 95.699219 68.777344 92.328125 67.03125 88.023438 C 65.285156 83.714844 65.320312 78.988281 67.136719 74.714844 C 70.660156 66.402344 79.941406 62.25 88.394531 64.921875 Z M 88.394531 64.921875 " fill-opacity="1" fill-rule="nonzero"/></g></g></g><g clip-path="url(#bf3f6c0009)"><g clip-path="url(#126d02a909)"><g clip-path="url(#d7e84a63b0)"><path fill="#a6a6a6" d="M 31.773438 51.0625 C 32.109375 51.28125 32.242188 51.710938 32.085938 52.082031 L 21.046875 78.117188 C 20.914062 78.425781 20.613281 78.625 20.277344 78.625 C 19.941406 78.621094 19.636719 78.414062 19.511719 78.105469 L 13.171875 62.472656 L 7.761719 64.65625 L 16.414062 86 C 16.476562 86.152344 16.492188 86.3125 16.464844 86.460938 L 18.851562 92.347656 L 24.742188 89.96875 C 24.832031 89.839844 24.960938 89.742188 25.105469 89.683594 L 46.46875 81.054688 L 44.273438 75.648438 L 28.628906 81.964844 C 28.445312 82.039062 28.246094 82.046875 28.066406 81.988281 C 27.941406 81.949219 27.820312 81.878906 27.722656 81.777344 C 27.488281 81.539062 27.421875 81.179688 27.550781 80.871094 L 38.589844 54.835938 C 38.746094 54.46875 39.148438 54.261719 39.539062 54.351562 C 50.671875 56.871094 61.984375 51.074219 66.4375 40.566406 C 68.894531 34.773438 68.945312 28.367188 66.578125 22.53125 C 64.210938 16.695312 59.710938 12.125 53.90625 9.664062 C 41.917969 4.589844 28.046875 10.191406 22.972656 22.15625 C 18.519531 32.660156 22.222656 44.816406 31.773438 51.0625 Z M 28.675781 24.570312 C 32.199219 16.257812 41.480469 12.109375 49.933594 14.78125 C 50.457031 14.945312 50.976562 15.136719 51.492188 15.355469 C 55.773438 17.167969 59.09375 20.539062 60.839844 24.847656 C 62.585938 29.152344 62.550781 33.878906 60.738281 38.152344 C 56.996094 46.980469 46.75 51.125 37.917969 47.371094 C 33.636719 45.554688 30.316406 42.1875 28.570312 37.878906 C 26.824219 33.574219 26.863281 28.847656 28.675781 24.570312 Z M 28.675781 24.570312 " fill-opacity="1" fill-rule="nonzero"/></g></g></g></g></g></g></svg>