<svg xmlns="http://www.w3.org/2000/svg" xmlns:xlink="http://www.w3.org/1999/xlink" width="1366" zoomAndPan="magnify" viewBox="0 0 1024.5 576" height="768" preserveAspectRatio="xMidYMid meet" version="1.0"><defs><filter x="0%" y="0%" width="100%" height="100%" id="53c87cf32f"><feColorMatrix values="0 0 0 0 1 0 0 0 0 1 0 0 0 0 1 0 0 0 1 0" color-interpolation-filters="sRGB"/></filter><mask id="817a4d38f5"><g filter="url(#53c87cf32f)"><rect x="-102.45" width="1229.4" fill="#000000" y="-57.6" height="691.2" fill-opacity="0.7"/></g></mask><clipPath id="c30de9d1aa"><path d="M 0.566406 0.617188 L 233.941406 0.617188 L 233.941406 172.910156 L 0.566406 172.910156 Z M 0.566406 0.617188 " clip-rule="nonzero"/></clipPath><clipPath id="5053700662"><rect x="0" width="235" y="0" height="173"/></clipPath><mask id="126d38905e"><g filter="url(#53c87cf32f)"><rect x="-102.45" width="1229.4" fill="#000000" y="-57.6" height="691.2" fill-opacity="0.67"/></g></mask><clipPath id="9c7c0520a7"><path d="M 16 17 L 85 17 L 85 137 L 16 137 Z M 16 17 " clip-rule="nonzero"/></clipPath><clipPath id="1987ebd52d"><path d="M 31.234375 0.046875 L 170.027344 50.492188 L 125.214844 173.789062 L -13.578125 123.34375 Z M 31.234375 0.046875 " clip-rule="nonzero"/></clipPath><clipPath id="cec14f1358"><path d="M 31.234375 0.046875 L 170.027344 50.492188 L 125.214844 173.789062 L -13.578125 123.34375 Z M 31.234375 0.046875 " clip-rule="nonzero"/></clipPath><clipPath id="917cb57b8d"><path d="M 69 41 L 159 41 L 159 162 L 69 162 Z M 69 41 " clip-rule="nonzero"/></clipPath><clipPath id="bae8b22473"><path d="M 31.234375 0.046875 L 170.027344 50.492188 L 125.214844 173.789062 L -13.578125 123.34375 Z M 31.234375 0.046875 " clip-rule="nonzero"/></clipPath><clipPath id="b1b9dd0bfb"><path d="M 31.234375 0.046875 L 170.027344 50.492188 L 125.214844 173.789062 L -13.578125 123.34375 Z M 31.234375 0.046875 " clip-rule="nonzero"/></clipPath><clipPath id="c3dae194a7"><rect x="0" width="171" y="0" height="173"/></clipPath><mask id="e8ec6f9433"><g filter="url(#53c87cf32f)"><rect x="-102.45" width="1229.4" fill="#000000" y="-57.6" height="691.2" fill-opacity="0.67"/></g></mask><clipPath id="e90ad3b62f"><path d="M 71 27 L 128 27 L 128 126 L 71 126 Z M 71 27 " clip-rule="nonzero"/></clipPath><clipPath id="0336e32794"><path d="M 117.265625 139.917969 L 0.0429688 102.867188 L 32.800781 -0.777344 L 150.023438 36.273438 Z M 117.265625 139.917969 " clip-rule="nonzero"/></clipPath><clipPath id="a6727f4949"><path d="M 117.265625 139.917969 L 0.0429688 102.867188 L 32.800781 -0.777344 L 150.023438 36.273438 Z M 117.265625 139.917969 " clip-rule="nonzero"/></clipPath><clipPath id="e898d474e4"><path d="M 8 8 L 82 8 L 82 110 L 8 110 Z M 8 8 " clip-rule="nonzero"/></clipPath><clipPath id="49c21ab7db"><path d="M 117.265625 139.917969 L 0.0429688 102.867188 L 32.800781 -0.777344 L 150.023438 36.273438 Z M 117.265625 139.917969 " clip-rule="nonzero"/></clipPath><clipPath id="a592f7b503"><path d="M 117.265625 139.917969 L 0.0429688 102.867188 L 32.800781 -0.777344 L 150.023438 36.273438 Z M 117.265625 139.917969 " clip-rule="nonzero"/></clipPath><clipPath id="ae0d248d75"><rect x="0" width="149" y="0" height="140"/></clipPath></defs><g mask="url(#817a4d38f5)"><g transform="matrix(1, 0, 0, 1, 395, 378)"><g clip-path="url(#5053700662)"><g clip-path="url(#c30de9d1aa)"><path fill="#a6a6a6" d="M 46.710938 171.777344 C 46.003906 171.429688 44.992188 170.40625 44.460938 169.503906 C 43.539062 167.929688 43.5 167.589844 43.5 160.960938 L 43.5 154.050781 L 36 154.050781 C 29.265625 154.050781 28.335938 153.972656 26.90625 153.265625 C 24.476562 152.0625 23.753906 150.804688 23.753906 147.796875 C 23.753906 144.785156 24.476562 143.53125 26.90625 142.328125 C 28.335938 141.621094 29.265625 141.539062 36 141.539062 L 43.5 141.539062 L 43.5 118.15625 L 40.890625 117.703125 C 23.671875 114.703125 8.878906 101.847656 3.261719 84.996094 C 0.199219 75.8125 0.046875 64.488281 2.859375 55.292969 C 8.421875 37.105469 23.882812 23.828125 42.703125 21.074219 C 47.894531 20.316406 56.898438 20.789062 61.6875 22.070312 C 68.734375 23.957031 75.132812 27.070312 80.285156 31.117188 C 82.488281 32.847656 89.195312 40.023438 94.144531 45.945312 C 95.433594 47.488281 98.625 51.113281 101.230469 53.996094 L 105.96875 59.238281 L 101.566406 63.796875 L 97.164062 68.359375 L 90.570312 60.933594 C 86.945312 56.851562 81.644531 50.890625 78.792969 47.683594 C 75.816406 44.335938 72.574219 41.121094 71.167969 40.121094 C 60.125 32.261719 45.617188 31.03125 33.648438 36.945312 C 24.253906 41.589844 17.558594 49.785156 14.492188 60.398438 C 13.707031 63.117188 13.59375 64.34375 13.621094 69.78125 C 13.652344 75.417969 13.761719 76.386719 14.71875 79.558594 C 17.355469 88.261719 22.9375 95.640625 30.390625 100.289062 C 40.691406 106.707031 52.96875 107.644531 64.195312 102.867188 L 66.976562 101.683594 L 70.109375 104.945312 C 71.832031 106.738281 73.941406 108.691406 74.796875 109.285156 C 75.945312 110.082031 76.25 110.492188 75.953125 110.847656 C 75.25 111.699219 67.667969 115.238281 64.425781 116.234375 C 62.703125 116.761719 60.109375 117.414062 58.65625 117.679688 L 56.015625 118.164062 L 56.015625 141.496094 L 64.132812 141.617188 C 71.90625 141.730469 72.300781 141.773438 73.523438 142.644531 C 75.203125 143.84375 76.097656 145.632812 76.097656 147.796875 C 76.097656 149.960938 75.203125 151.746094 73.523438 152.945312 C 72.300781 153.820312 71.902344 153.863281 64.132812 153.976562 L 56.015625 154.097656 L 56.015625 160.980469 C 56.015625 167.59375 55.980469 167.929688 55.054688 169.511719 C 54.492188 170.472656 53.527344 171.421875 52.746094 171.792969 C 51.039062 172.605469 48.371094 172.597656 46.714844 171.78125 Z M 100.984375 118.207031 C 94.109375 117.117188 88.96875 115.488281 83.8125 112.773438 C 72.332031 106.71875 63.773438 96.375 59.980469 83.976562 C 58.558594 79.324219 57.941406 75.050781 57.925781 69.78125 C 57.898438 59.667969 60.359375 51.078125 65.636719 42.898438 C 66.574219 41.445312 67.488281 40.257812 67.671875 40.257812 C 69.125 40.257812 77.640625 48.5 76.753906 49.046875 C 76.113281 49.445312 73.730469 53.964844 72.667969 56.8125 C 70.890625 61.558594 70.355469 65.234375 70.585938 71.132812 C 70.75 75.410156 70.992188 77.070312 71.84375 79.753906 C 76.105469 93.195312 86.289062 102.355469 100.203125 105.257812 C 106.921875 106.664062 115.203125 105.667969 121.515625 102.695312 L 124.25 101.410156 L 128.796875 106.023438 L 133.347656 110.636719 L 131.503906 111.769531 C 126.929688 114.585938 120.539062 116.828125 114.085938 117.886719 C 110.890625 118.410156 103.425781 118.59375 100.984375 118.207031 Z M 158.078125 118.230469 C 147.960938 116.371094 143.945312 114.882812 137.152344 110.472656 C 132.925781 107.726562 129.472656 104.246094 114.144531 87.261719 L 108.394531 80.882812 L 112.582031 76.410156 C 114.886719 73.945312 116.898438 71.933594 117.054688 71.933594 C 117.214844 71.933594 120.382812 75.320312 124.101562 79.460938 C 127.816406 83.601562 131.421875 87.515625 132.109375 88.160156 C 132.796875 88.804688 135.140625 91.300781 137.3125 93.703125 C 142.878906 99.855469 147.804688 102.949219 155.144531 104.894531 C 159.742188 106.109375 167.933594 106.085938 172.546875 104.839844 C 179.195312 103.042969 185.011719 99.683594 189.644531 94.949219 C 196.734375 87.710938 200.03125 79.59375 200.027344 69.390625 C 200.027344 63.402344 199.03125 59.089844 196.402344 53.6875 C 192.824219 46.34375 187.042969 40.515625 179.78125 36.941406 C 174.664062 34.417969 171.328125 33.589844 165.3125 33.34375 C 159.230469 33.097656 154.484375 33.917969 149.492188 36.074219 L 146.347656 37.433594 L 144.707031 35.476562 C 143.804688 34.398438 141.824219 32.449219 140.308594 31.140625 C 138.789062 29.835938 137.546875 28.582031 137.546875 28.351562 C 137.546875 27.746094 145.3125 23.945312 148.496094 22.988281 C 154.007812 21.332031 155.65625 21.0625 161.6875 20.832031 C 169.761719 20.519531 174.859375 21.328125 181.953125 24.039062 C 184.859375 25.148438 190.777344 28.433594 192.9375 30.140625 C 193.722656 30.757812 194.515625 31.265625 194.699219 31.265625 C 194.886719 31.265625 199.082031 27.214844 204.027344 22.269531 L 213.015625 13.277344 L 205.867188 13.277344 C 197.765625 13.277344 196.765625 13.039062 194.992188 10.714844 C 194.0625 9.496094 193.871094 8.871094 193.871094 7.019531 C 193.871094 5.167969 194.0625 4.539062 194.992188 3.320312 C 196.972656 0.722656 196.976562 0.722656 214.378906 0.847656 C 229.5 0.953125 230.007812 0.980469 231.078125 1.777344 C 231.683594 2.226562 232.578125 3.175781 233.0625 3.886719 C 233.9375 5.171875 233.941406 5.28125 233.941406 19.796875 C 233.941406 36.082031 233.925781 36.207031 231.375 38.152344 C 230.148438 39.089844 229.519531 39.28125 227.683594 39.28125 C 225.851562 39.28125 225.222656 39.089844 223.996094 38.152344 C 221.746094 36.4375 221.429688 35.261719 221.429688 28.640625 L 221.429688 22.863281 L 212.472656 31.808594 L 203.519531 40.757812 L 204.902344 42.917969 C 209.183594 49.613281 211.589844 56.546875 212.457031 64.699219 C 214.558594 84.410156 203.984375 103.90625 186.296875 112.929688 C 178.925781 116.691406 173.417969 118.066406 164.921875 118.269531 C 161.695312 118.347656 158.617188 118.332031 158.078125 118.230469 Z M 85.292969 96.261719 C 82.347656 93.917969 79.3125 90.582031 79.542969 89.945312 C 79.804688 89.222656 125.789062 41.429688 126.222656 41.429688 C 127.25 41.429688 135.199219 49.34375 134.902344 50.070312 C 134.746094 50.453125 88.8125 98.320312 88.476562 98.441406 C 88.308594 98.503906 86.875 97.523438 85.289062 96.261719 Z M 143.21875 96.785156 C 142.035156 95.835938 140.074219 93.9375 138.863281 92.566406 C 136.816406 90.25 136.703125 90.023438 137.25 89.3125 C 137.574219 88.894531 138.601562 86.960938 139.535156 85.015625 C 149.300781 64.699219 138.136719 40.613281 116.039062 34.324219 C 113.398438 33.570312 111.96875 33.433594 106.851562 33.425781 C 100.171875 33.417969 97.789062 33.863281 92.382812 36.117188 L 89.449219 37.34375 L 84.921875 32.769531 L 80.398438 28.195312 L 82.773438 26.789062 C 85.746094 25.03125 91.171875 22.925781 95.511719 21.851562 C 100.273438 20.671875 109.691406 20.378906 114.804688 21.25 C 136.269531 24.910156 152.675781 42.101562 155.328125 63.710938 C 156.507812 73.339844 154.839844 82.765625 150.398438 91.597656 C 148.441406 95.492188 146.453125 98.527344 145.863281 98.523438 C 145.59375 98.519531 144.402344 97.742188 143.21875 96.789062 Z M 143.21875 96.785156 " fill-opacity="1" fill-rule="nonzero"/></g></g></g></g><g mask="url(#126d38905e)"><g transform="matrix(1, 0, 0, 1, 0, 228)"><g clip-path="url(#c3dae194a7)"><g clip-path="url(#9c7c0520a7)"><g clip-path="url(#1987ebd52d)"><g clip-path="url(#cec14f1358)"><path fill="#a6a6a6" d="M 50.707031 121.34375 L 63.316406 122.4375 L 64.1875 112.292969 L 51.578125 111.203125 C 50.914062 111.144531 50.429688 110.5625 50.484375 109.902344 L 52.472656 86.773438 C 52.527344 86.195312 52.980469 85.734375 53.558594 85.683594 C 69.964844 84.171875 82.894531 71.164062 84.308594 54.753906 C 85.914062 36.058594 71.992188 19.527344 53.277344 17.90625 C 44.210938 17.121094 35.382812 19.90625 28.421875 25.753906 C 21.460938 31.601562 17.199219 39.808594 16.421875 48.859375 C 15.007812 65.273438 25.535156 80.316406 41.433594 84.628906 C 42.003906 84.773438 42.367188 85.3125 42.316406 85.890625 L 40.328125 109.019531 C 40.300781 109.335938 40.148438 109.628906 39.902344 109.835938 C 39.660156 110.039062 39.34375 110.140625 39.027344 110.113281 L 26.417969 109.019531 L 25.546875 119.160156 L 38.15625 120.257812 C 38.265625 120.265625 38.367188 120.289062 38.464844 120.324219 C 38.960938 120.503906 39.296875 121.003906 39.25 121.554688 L 38.058594 135.402344 L 48.21875 136.28125 L 49.40625 122.4375 C 49.433594 122.121094 49.585938 121.828125 49.832031 121.621094 C 50.074219 121.417969 50.390625 121.316406 50.707031 121.34375 Z M 42.148438 76.375 C 41.402344 76.105469 40.664062 75.796875 39.933594 75.449219 C 33.867188 72.570312 29.285156 67.507812 27.03125 61.1875 C 24.777344 54.871094 25.117188 48.058594 27.996094 42 C 33.933594 29.5 48.953125 24.152344 61.472656 30.105469 C 67.539062 32.984375 72.121094 38.050781 74.375 44.367188 C 76.628906 50.6875 76.285156 57.5 73.410156 63.558594 C 67.816406 75.332031 54.171875 80.746094 42.148438 76.375 Z M 42.148438 76.375 " fill-opacity="1" fill-rule="nonzero"/></g></g></g><g clip-path="url(#917cb57b8d)"><g clip-path="url(#bae8b22473)"><g clip-path="url(#b1b9dd0bfb)"><path fill="#a6a6a6" d="M 122.960938 99.839844 C 122.488281 99.5 122.328125 98.875 122.578125 98.347656 L 140.09375 61.472656 C 140.300781 61.035156 140.753906 60.765625 141.238281 60.789062 C 141.71875 60.816406 142.144531 61.128906 142.308594 61.585938 L 150.492188 84.523438 L 158.433594 81.703125 L 147.257812 50.386719 C 147.179688 50.164062 147.167969 49.933594 147.214844 49.71875 L 144.136719 41.082031 L 135.492188 44.152344 C 135.351562 44.332031 135.164062 44.46875 134.949219 44.542969 L 103.605469 55.675781 L 106.4375 63.609375 L 129.394531 55.457031 C 129.664062 55.359375 129.949219 55.367188 130.207031 55.457031 C 130.386719 55.523438 130.550781 55.632812 130.6875 55.78125 C 131.011719 56.140625 131.089844 56.664062 130.878906 57.101562 L 113.363281 93.976562 C 113.113281 94.5 112.523438 94.769531 111.964844 94.617188 C 96.0625 90.304688 79.386719 97.96875 72.320312 112.851562 C 68.421875 121.058594 67.957031 130.292969 71.015625 138.859375 C 74.070312 147.421875 80.28125 154.289062 88.503906 158.191406 C 105.484375 166.246094 125.835938 159.019531 133.886719 142.070312 C 140.953125 127.191406 136.359375 109.429688 122.960938 99.839844 Z M 125.808594 138.238281 C 120.21875 150.011719 106.574219 155.429688 94.546875 151.058594 C 93.800781 150.785156 93.0625 150.480469 92.335938 150.132812 C 86.269531 147.253906 81.6875 142.1875 79.433594 135.871094 C 77.175781 129.550781 77.519531 122.738281 80.394531 116.679688 C 86.335938 104.179688 101.363281 98.828125 113.871094 104.789062 C 119.9375 107.667969 124.519531 112.730469 126.773438 119.050781 C 129.027344 125.367188 128.6875 132.183594 125.808594 138.238281 Z M 125.808594 138.238281 " fill-opacity="1" fill-rule="nonzero"/></g></g></g></g></g></g><g mask="url(#e8ec6f9433)"><g transform="matrix(1, 0, 0, 1, 874, 395)"><g clip-path="url(#ae0d248d75)"><g clip-path="url(#e90ad3b62f)"><g clip-path="url(#0336e32794)"><g clip-path="url(#a6727f4949)"><path fill="#a6a6a6" d="M 96.847656 40.042969 L 86.355469 39.582031 L 85.988281 48.023438 L 96.480469 48.484375 C 97.035156 48.507812 97.457031 48.972656 97.433594 49.523438 L 96.597656 68.765625 C 96.578125 69.25 96.214844 69.644531 95.738281 69.710938 C 82.191406 71.539062 71.929688 82.78125 71.335938 96.4375 C 70.664062 111.992188 82.789062 125.207031 98.359375 125.890625 C 105.90625 126.222656 113.125 123.597656 118.691406 118.507812 C 124.253906 113.414062 127.5 106.460938 127.824219 98.929688 C 128.417969 85.269531 119.160156 73.171875 105.828125 70.15625 C 105.351562 70.054688 105.03125 69.621094 105.050781 69.140625 L 105.886719 49.894531 C 105.898438 49.632812 106.011719 49.382812 106.207031 49.207031 C 106.402344 49.027344 106.660156 48.933594 106.925781 48.945312 L 117.414062 49.40625 L 117.78125 40.96875 L 107.289062 40.503906 C 107.199219 40.5 107.113281 40.484375 107.03125 40.460938 C 106.613281 40.328125 106.316406 39.925781 106.335938 39.46875 L 106.835938 27.945312 L 98.382812 27.574219 L 97.886719 39.09375 C 97.875 39.355469 97.757812 39.605469 97.5625 39.785156 C 97.367188 39.960938 97.109375 40.054688 96.847656 40.042969 Z M 105.527344 77.023438 C 106.15625 77.222656 106.777344 77.449219 107.394531 77.714844 C 112.523438 79.886719 116.5 83.921875 118.59375 89.082031 C 120.6875 94.238281 120.640625 99.902344 118.472656 105.023438 C 113.988281 115.59375 101.722656 120.558594 91.136719 116.0625 C 86.007812 113.890625 82.027344 109.851562 79.9375 104.695312 C 77.847656 99.535156 77.890625 93.875 80.0625 88.753906 C 84.28125 78.792969 95.402344 73.824219 105.527344 77.023438 Z M 105.527344 77.023438 " fill-opacity="1" fill-rule="nonzero"/></g></g></g><g clip-path="url(#e898d474e4)"><g clip-path="url(#49c21ab7db)"><g clip-path="url(#a592f7b503)"><path fill="#a6a6a6" d="M 37.703125 60.417969 C 38.105469 60.683594 38.261719 61.199219 38.074219 61.640625 L 24.851562 92.828125 C 24.695312 93.199219 24.328125 93.4375 23.925781 93.4375 C 23.527344 93.429688 23.164062 93.1875 23.011719 92.816406 L 15.417969 74.085938 L 8.933594 76.707031 L 19.304688 102.273438 C 19.375 102.453125 19.390625 102.644531 19.359375 102.824219 L 22.21875 109.875 L 29.277344 107.027344 C 29.386719 106.875 29.539062 106.753906 29.710938 106.683594 L 55.304688 96.347656 L 52.675781 89.871094 L 33.933594 97.441406 C 33.714844 97.53125 33.476562 97.535156 33.261719 97.46875 C 33.109375 97.417969 32.96875 97.335938 32.851562 97.214844 C 32.566406 96.929688 32.488281 96.5 32.644531 96.128906 L 45.867188 64.941406 C 46.054688 64.5 46.53125 64.253906 47.003906 64.359375 C 60.339844 67.375 73.890625 60.433594 79.226562 47.847656 C 82.171875 40.90625 82.230469 33.234375 79.394531 26.242188 C 76.558594 19.25 71.167969 13.777344 64.210938 10.828125 C 49.851562 4.75 33.234375 11.457031 27.15625 25.792969 C 21.824219 38.375 26.257812 52.9375 37.703125 60.417969 Z M 33.988281 28.683594 C 38.210938 18.726562 49.328125 13.757812 59.453125 16.957031 C 60.082031 17.15625 60.703125 17.382812 61.320312 17.644531 C 66.449219 19.820312 70.429688 23.855469 72.519531 29.015625 C 74.613281 34.171875 74.566406 39.835938 72.398438 44.957031 C 67.914062 55.53125 55.640625 60.496094 45.0625 55.996094 C 39.933594 53.824219 35.957031 49.785156 33.863281 44.628906 C 31.773438 39.46875 31.816406 33.804688 33.988281 28.683594 Z M 33.988281 28.683594 " fill-opacity="1" fill-rule="nonzero"/></g></g></g></g></g></g></svg>